<?xml version="1.0" encoding="utf-8"?>
<!-- Generator: Adobe Illustrator 24.1.1, SVG Export Plug-In . SVG Version: 6.00 Build 0)  -->
<svg version="1.1" id="Layer_1" xmlns="http://www.w3.org/2000/svg" xmlns:xlink="http://www.w3.org/1999/xlink" x="0px" y="0px"
	 viewBox="0 0 573.2 396.2" style="enable-background:new 0 0 573.2 396.2;" xml:space="preserve">
<style type="text/css">
	.st0{clip-path:url(#SVGID_2_);}
	.st1{fill:url(#SVGID_3_);}
	.st2{fill:url(#SVGID_4_);}
	.st3{fill:url(#SVGID_5_);}
	.st4{fill:url(#SVGID_6_);}
	.st5{fill:#FF6731;}
	.st6{fill:#0900A3;}
	.st7{fill:#FDCF68;}
	.st8{fill:#6D0158;}
	.st9{fill:#15268C;}
	.st10{fill:#FFFFFF;}
</style>
<g id="Layer_2_1_">
	<g id="Layer_1-2">
		<g>
			<g>
				<g>
					<defs>
						<polygon id="SVGID_1_" points="573.2,-625.6 573.2,396.2 234.6,396.2 37.4,396.2 0,396.2 0,-625.6 						"/>
					</defs>
					<clipPath id="SVGID_2_">
						<use xlink:href="#SVGID_1_"  style="overflow:visible;"/>
					</clipPath>
					<g class="st0">
						
							<linearGradient id="SVGID_3_" gradientUnits="userSpaceOnUse" x1="186.17" y1="-43.1521" x2="559.97" y2="-43.1521" gradientTransform="matrix(1 0 0 -1 13.83 286.5957)">
							<stop  offset="0" style="stop-color:#F69453"/>
							<stop  offset="0" style="stop-color:#FE746A"/>
							<stop  offset="8.000000e-02" style="stop-color:#FE746D"/>
							<stop  offset="0.16" style="stop-color:#FF7471"/>
							<stop  offset="0.3" style="stop-color:#FF7471"/>
							<stop  offset="0.75" style="stop-color:#F37521"/>
							<stop  offset="1" style="stop-color:#D4622A"/>
						</linearGradient>
						<path class="st1" d="M573.2,288.4c-2.1-1.2-10.5-6.2-22.6-13.9s-33.4-10.4-53.8-11c-1.3,0.1-2.5,0-3.8-0.1
							c-2.3,0-4.5-0.1-6.7-0.1c-5.6,0.2-11.2,0.8-16.7,1.9c-34.3,34.9-86.3,45.6-131.6,27c-46.7,9.5-138,36.9-138,36.9l42.8,67.1
							h330.4V288.4z"/>
						
							<linearGradient id="SVGID_4_" gradientUnits="userSpaceOnUse" x1="194.84" y1="43.8152" x2="551.15" y2="43.8152" gradientTransform="matrix(1 0 0 -1 13.83 286.5957)">
							<stop  offset="0.12" style="stop-color:#30E3E3"/>
							<stop  offset="0.61" style="stop-color:#00B8B5"/>
							<stop  offset="0.77" style="stop-color:#00F2F2"/>
							<stop  offset="0.81" style="stop-color:#00FFFF"/>
							<stop  offset="0.91" style="stop-color:#00AEA8"/>
						</linearGradient>
						<path class="st2" d="M539.1,249.2c5.6-2.1,30.8-7.3,25-17.7c-1-1.6-2.5-2.8-4.1-3.6c-6.2-3.5-13.1-5.5-20.3-5.8
							c-7-0.3-13.2,1.4-19.8,3c-8,1.9-16.5,3.3-24.1,0.3l-0.2-0.1c-5.2,13.1-12.7,25.2-22.1,35.8c1.8-0.1,3.6-0.1,5.4,0.1
							c4.7,0.3,9.5,1.8,14.2,2.2l3.8,0.1c1.2-0.1,2.4-0.2,3.5-0.5C513.7,259.9,526.3,254.2,539.1,249.2z"/>
						
							<linearGradient id="SVGID_5_" gradientUnits="userSpaceOnUse" x1="194.84" y1="116.4497" x2="551.15" y2="116.4497" gradientTransform="matrix(1 0 0 -1 13.83 286.5957)">
							<stop  offset="0.12" style="stop-color:#30E3E3"/>
							<stop  offset="0.61" style="stop-color:#00B8B5"/>
							<stop  offset="0.77" style="stop-color:#00F2F2"/>
							<stop  offset="0.81" style="stop-color:#00FFFF"/>
							<stop  offset="0.91" style="stop-color:#00AEA8"/>
						</linearGradient>
						<path class="st3" d="M498.6,216.9l1.1-0.6c2.3-1.1,4.5-2.1,6.8-3.2c9.1-4.5,16.8-11.7,24.8-17.7c4.3-3.2,8.8-6.3,12.7-10
							c2.3-2.2,4.3-4.8,5.8-7.6c0.8-1.6,3.4-5.6,2-7.4s-4.6-0.5-6.2-0.1c-5.4,1.4-10.8,3.5-16,5.4c-4.2,1.5-8.7,4-13.3,3.7
							c-1.5,0-3-0.6-4.1-1.7c-1.4-1.4-1.6-3.6-1.7-5.6c-0.2-7.6,1.3-15.1,1.9-22.7s0.1-15.6-3.9-22.1c-1.2-2-3.1-4-5.5-3.9
							c-3.8,0.2-7.5,4.7-9.9,7.4C505.4,157.7,507.4,188.4,498.6,216.9L498.6,216.9z"/>
						
							<linearGradient id="SVGID_6_" gradientUnits="userSpaceOnUse" x1="194.8588" y1="46.23" x2="551.1688" y2="46.23" gradientTransform="matrix(1 0 0 -1 13.83 286.5957)">
							<stop  offset="0.12" style="stop-color:#30E3E3"/>
							<stop  offset="0.61" style="stop-color:#00B8B5"/>
							<stop  offset="0.77" style="stop-color:#00F2F2"/>
							<stop  offset="0.81" style="stop-color:#00FFFF"/>
							<stop  offset="0.91" style="stop-color:#00AEA8"/>
						</linearGradient>
						<path class="st4" d="M273.2,228.7c-8.5-13.8-16.2-28.2-24.9-41.9c-1.8-2.9-4.3-6.1-7.7-6.1c-1.8,0.2-3.4,0.9-4.8,2
							c-5.2,3.5-10,8.1-11.4,14.2c-1.6,7.1,1.9,14.4,6.3,20.2s9.7,11.1,12.6,17.8c0.4,0.7,0.5,1.6,0.4,2.4c-0.5,1.8-2.9,1.9-4.7,1.7
							l-20.2-2.3c-3.1-0.3-6.8-0.5-8.9,1.9c-2.3,2.7-1,7,1.2,9.8c3,3.9,7.3,6.5,11.8,8.5c15.2,6.7,32.8,5.8,48.4,11.5
							c0.8,0.2,1.5,0.6,2.1,1.3c1.1,1.4,0.3,3.4-0.8,4.8c-4.5,6.1-12.5,8.5-19.9,10s-15.4,2.6-21.4,7.2c-0.9,0.7-1.8,1.8-1.2,2.8
							c0.3,0.4,0.7,0.6,1.2,0.8c13.4,4.9,28.1,5.6,42.3,3.9c6.4-0.8,12.8-2,19.1-3.6c3.1-0.7,6.1-1.6,9.1-2.4
							c4.6-1.3,9.4-2.3,13.8-4.2c1.2-0.5,2.3-1.1,3.5-1.5c1.3-0.5,2.7-0.6,4-0.4c1.7,0.3,3.2,1.1,4.8,1.4c1,0.2,1.9,0.3,2.8,0.5
							C304.9,276.2,284.6,254.9,273.2,228.7z"/>
						<polygon class="st5" points="37.4,396.2 34.4,401.1 237.8,401.1 234.6,396.2 133.8,241.9 						"/>
						<path class="st6" d="M495.5,225.4c1.1-2.8,2.1-5.6,3-8.5c19.9-63.4-15.4-131-78.8-150.9s-131,15.4-150.9,78.8
							c-17.8,56.7,8.4,117.9,61.8,144.1c2.4,1.2,4.9,2.3,7.4,3.3c45.3,18.6,97.3,7.9,131.6-27c1.3-1.3,2.6-2.7,3.8-4.1
							C482.8,250.5,490.3,238.4,495.5,225.4z M383.7,103.2c42.9,0,77.8,34.8,77.8,77.8c0,42.9-34.8,77.8-77.8,77.8
							c-42.9,0-77.8-34.8-77.8-77.8l0,0C305.9,137.9,340.7,103.2,383.7,103.2z"/>
						<circle class="st7" cx="383.7" cy="180.9" r="77.8"/>
						<path class="st8" d="M5.6,378.2l20.2,18l34.4-49.3l-34.4-49.5L0,338.7l-9.3,14.9c0,0-4.2,5.4,9.3,19.3
							C1.6,374.5,3.5,376.4,5.6,378.2z"/>
						<path class="st9" d="M-12.8,295.7c12.4,13.1,27.8,22.8,44.9,28.2c16.3,5.2,37,8.4,52-1.7s19.9-28.5,17.3-45.6
							c-1.4-9.6-5-18.8-9.2-27.5c-3.7-7.6-8.5-15-15.4-20.1c-7.4-5.4-16.6-7-25.5-7.7c-9.6-0.7-19.9-0.9-28.9,3
							c-6.9,3-12.9,8.4-15.4,15.6c-2.8,7.9-0.1,16.3,4.5,22.9c10.2,15,25.9,27.4,40.3,38.2c15.5,11.5,31.9,21.6,49.1,30.2
							c19.1,9.5,38.8,17.9,58.9,25c11.1,4,22.2,7.2,34.1,7.6c12.3,0.5,24.5-1.5,36.4-4.2c4.7-1.1,2.7-8.3-2-7.2
							c-18.6,4.2-37.2,5.8-55.6,0.2c-16.1-4.9-32-11.4-47.4-18.2c-29.7-13.2-58.4-29.4-83.1-50.8c-6.1-5.3-11.9-10.9-17.5-16.7
							c-5.3-5.6-11.7-12.9-11.2-21.2c1.3-18.9,28.3-18,41.4-16.6c8.4,0.9,16.2,3.5,22.1,9.8c5.7,6,9.4,14.1,12.4,21.7
							c6,15,9,33.5-1,47.6c-11.6,16.3-33.1,14.3-50.2,9.6c-17.6-4.7-33.3-14.2-45.7-27.3C-10.8,286.9-16.1,292.2-12.8,295.7z"/>
						<path class="st5" d="M171.1,314.9c5,2.1,10.2-0.5,13.4-4.6c4.7-6.1,4.4-14.3,10-20c7.2-7.3,18.8-14,13.3-26
							c-5.5-12-22.6-17.2-34-21.3c-14.3-5.2-29.2-9.1-42.8-16c-7-3.6-14.8-7.9-19.1-14.7c-2.3-3.6-3.6-8.3-0.4-11.8
							c2.6-2.8,6.4-4.3,9.1-6.9c4.6-4.6,7.4-10.6,10-16.5c3.2-7.3,6.7-14.3,11.7-20.6c9.6-12,21.7-22.2,28.1-36.5
							c3.1-6.5,4.3-13.7,3.6-20.8c-1-8.4-4.7-16.2-6.5-24.4c-3.6-17-1.7-34.6,5.3-50.5c3.5-7.9,8.7-14.5,17.4-16.7
							c7.9-2,16.7-1.6,24.7-1c34.1,2.5,65.9,18.8,92.1,40c25.7,20.7,47.4,46.1,68.1,71.6c21.1,26,41.2,53,61.8,79.4
							c20.4,26.1,41.4,51.9,64.5,75.6c5.7,5.9,11.6,11.7,17.6,17.3c4.5,4.2,9.6,8.7,16,9.4c6.8,0.7,12.2-4,17.2-7.9
							s10.3-8.6,13.3-14.4c1.3-2.4,2.2-5,2.6-7.7c0.5-3.2,0.5-15.3,6.4-12.5c2.9,1.4,5.4-3,2.5-4.3c-4.7-2.2-9.7,0.1-11.9,4.7
							c-1.5,3.1-1.3,6.7-1.7,10c-0.6,4.5-2.5,8.6-5.5,12c-4.4,5.3-11,11.2-17.3,14.1c-8.8,4-16.8-5.7-22.6-11.2
							c-23.9-23-45.5-48.2-66.2-74.1s-40.6-52.7-61.2-78.8S348.8,77.6,324.2,55c-23.6-21.8-51.1-40-82.3-48.7
							c-15.3-4.2-31.9-6.4-47.7-4.5c-14.8,1.8-22.6,11.2-27.8,24.5c-5.6,14.8-7.2,30.9-4.5,46.5c1.4,8.4,5,16.1,6.6,24.4
							c1.8,9.3-0.9,18.3-5.7,26.4c-8.1,13.6-21,23.5-29.5,36.8c-4,6.2-6.4,13.1-9.6,19.7c-1.4,3.1-3.2,5.9-5.3,8.5
							c-2.6,3.1-6.1,4.7-9.1,7.2c-11.2,9.4-0.6,22.8,8.3,29.1c11.9,8.4,25.9,13.3,39.6,17.9c7.4,2.5,14.8,4.9,22,7.7
							c7,2.8,15,6,20.5,11.3c13.5,13-8.2,21.1-13.4,31.3c-2.7,5.4-4.5,20.9-13.8,17C169.5,308.7,168.2,313.7,171.1,314.9
							L171.1,314.9z"/>
						<path class="st9" d="M2.5,116.9c42.3,8.8,84.5,2.2,124.1-14c37.1-15.2,71.2-36.6,106.5-55.3C272.2,26.9,313.9,10,358.4,6.4
							c21.5-1.9,43.1-0.2,64.1,5c10.6,2.6,20.9,6.4,30.8,11.1c8.4,4.1,17,9.3,22.4,17.2c3.3,4.8,4.3,9.6,4.3,15.3
							c0,4.2,1,7.5,4.5,10c4,2.9,9.5,4.3,14.2,5.6c5.3,1.5,10.7,2.7,16.2,3.7c22.5,4,46.1,4.9,66.6,15.8c2.8,1.5,5.4-2.8,2.5-4.3
							c-18-9.5-38.1-11.7-57.9-14.7c-9.8-1.5-19.7-3.2-29.2-6.2c-2.1-0.7-4.2-1.4-6.2-2.2c-4.4-1.8-5.5-3.8-5.6-8.3
							c0.1-4-0.6-7.9-2-11.6c-6.8-16.4-26-24.8-41.5-30.6C421.8,5,400.8,1.1,379.7,0.9c-43.5-0.8-86,12.1-125,30.5
							C217.6,48.9,183,71.2,146,89c-20.7,9.9-42.2,18.3-64.7,23.1c-25.5,5.4-51.9,5.5-77.4,0.1C0.7,111.4-0.6,116.2,2.5,116.9z"/>
						<path class="st10" d="M222.6,178.2c3.3-2.3,5-5.3,6.4-9c2.3-5.9,3.7-9.8,10.1-12c12.5-4.3,25.4-7.5,38.5-9.6
							c12.7-1.9,25.9-2,38.3,1.6c12.6,3.6,21.9,12.1,33,18.5c20.3,11.8,44.1,15,67.2,15.6c10.6,0.3,23.6,1.6,32.5-5.2
							c3.4-2.4,5.8-6,6.7-10.1c0.5-2.3,0.1-4.7,1-6.9c1.1-2.8,3.7-4.7,6.3-6c5.6-2.9,12.2-4.2,18.1-6.4c7.1-2.6,14.1-5.5,21.3-8
							c14.5-5.1,29.9-8.5,44.9-3.9c3.1,0.9,4.4-3.9,1.3-4.8c-26.5-8-51.4,6.5-76,14.3c-7.6,2.4-17.9,4.9-20.8,13.5
							c-1.8,5.5-0.5,10.3-5.9,14.4c-5.9,4.5-13.9,4.3-21,4.2c-25.2,0-51.8-2.3-73.9-15.5c-10.7-6.3-19.8-14.3-31.9-18.1
							c-11.3-3.6-23.5-4.2-35.3-3c-15.1,1.5-29.9,5.7-44.4,10.1c-4.6,1.4-8.8,3.2-11.4,7.4c-2.8,4.5-3.1,11.2-7.7,14.5
							C217.4,175.7,219.9,180.2,222.6,178.2L222.6,178.2z"/>
						<path class="st10" d="M224.8,190.9c3.3-2.3,5-5.3,6.4-9c2.3-5.9,3.7-9.8,10.1-11.9c12.5-4.3,25.4-7.5,38.5-9.6
							c12.7-1.9,25.9-2,38.3,1.6c12.6,3.6,21.9,12,33,18.5c20.3,11.8,44.1,15,67.2,15.6c10.6,0.3,23.6,1.6,32.5-5.2
							c3.4-2.4,5.8-6,6.7-10.1c0.5-2.3,0.1-4.7,1-6.9c1.1-2.8,3.7-4.7,6.3-6c5.6-3,12.1-4.3,18.1-6.5c7.1-2.6,14.1-5.5,21.3-8
							c14.5-5.1,29.9-8.5,44.9-3.9c3.1,0.9,4.4-3.9,1.3-4.8c-26.6-8-51.4,6.5-76,14.3c-7.6,2.4-17.9,4.9-20.8,13.5
							c-1.8,5.5-0.5,10.3-5.9,14.4c-5.9,4.5-13.9,4.3-21,4.2c-25.2,0-51.8-2.3-73.9-15.5c-10.7-6.3-19.8-14.3-31.9-18.1
							c-11.3-3.6-23.5-4.2-35.3-3c-15.1,1.5-29.9,5.7-44.4,10.1c-4.6,1.4-8.8,3.2-11.4,7.4c-2.8,4.5-3.1,11.2-7.7,14.5
							C219.7,188.4,222.2,192.7,224.8,190.9L224.8,190.9z"/>
						<path class="st10" d="M227.1,204.4c3.3-2.3,5-5.3,6.4-9c2.3-5.9,3.7-9.8,10.1-12c12.5-4.3,25.4-7.5,38.5-9.6
							c12.7-1.9,25.9-2,38.3,1.6c12.6,3.6,21.9,12,33,18.5c20.3,11.8,44.1,15,67.2,15.6c10.6,0.3,23.6,1.7,32.5-5.2
							c3.4-2.4,5.8-6,6.7-10.1c0.5-2.3,0.1-4.7,1-6.9c1.1-2.8,3.7-4.7,6.3-6c5.6-2.9,12.2-4.2,18.1-6.4c7.1-2.6,14.1-5.5,21.3-8
							c14.5-5.1,29.9-8.5,44.9-3.9c3.1,0.9,4.4-3.9,1.3-4.8c-26.5-8-51.4,6.5-76,14.3c-7.6,2.4-17.9,4.9-20.8,13.5
							c-1.8,5.5-0.5,10.3-5.9,14.4c-5.9,4.5-13.9,4.3-21,4.2c-25.2,0-51.8-2.3-73.9-15.5c-10.7-6.3-19.8-14.3-31.9-18.1
							c-11.3-3.6-23.5-4.2-35.3-3c-15.1,1.5-29.9,5.7-44.4,10.1c-4.6,1.4-8.8,3.2-11.4,7.4c-2.8,4.5-3.1,11.3-7.7,14.5
							C221.9,202,224.4,206.4,227.1,204.4L227.1,204.4z"/>
					</g>
				</g>
			</g>
		</g>
	</g>
</g>
</svg>
